<svg xmlns="http://www.w3.org/2000/svg" viewBox="0 0 512 512" role="img" aria-labelledby="title desc">
  <title id="title">All University</title>
  <desc id="desc">Graduation cap with a colorful student portal mark</desc>
  <defs>
    <linearGradient id="ribbonA" x1="160" y1="110" x2="330" y2="430" gradientUnits="userSpaceOnUse">
      <stop offset="0" stop-color="#ffef00"/>
      <stop offset=".36" stop-color="#ffe600"/>
      <stop offset=".64" stop-color="#ff00ca"/>
      <stop offset="1" stop-color="#6838ff"/>
    </linearGradient>
    <linearGradient id="ribbonB" x1="314" y1="202" x2="176" y2="396" gradientUnits="userSpaceOnUse">
      <stop offset="0" stop-color="#2d32ff"/>
      <stop offset=".55" stop-color="#ff00d4"/>
      <stop offset="1" stop-color="#fff200"/>
    </linearGradient>
    <filter id="soft" x="-20%" y="-20%" width="140%" height="140%">
      <feDropShadow dx="0" dy="10" stdDeviation="10" flood-color="#000000" flood-opacity=".18"/>
    </filter>
  </defs>

  <rect width="512" height="512" fill="none"/>

  <g filter="url(#soft)">
    <path d="M86 142 257 64l169 78-169 74Z" fill="#030305"/>
    <path d="M157 175c30 20 70 30 101 30 33 0 74-10 104-30v67c0 40-47 72-104 72s-101-32-101-72Z" fill="#07070a"/>
    <path d="M397 151v126" fill="none" stroke="#09090c" stroke-width="18" stroke-linecap="round"/>
    <circle cx="397" cy="289" r="18" fill="#07070a"/>
    <path d="M397 304c19 39 10 70-28 98" fill="none" stroke="#0818ff" stroke-width="18" stroke-linecap="round"/>
  </g>

  <path
    d="M246 150c-45 39-66 78-63 118 3 35 31 54 65 54 28 0 51 18 50 46-1 29-27 52-72 68"
    fill="none"
    stroke="url(#ribbonA)"
    stroke-width="42"
    stroke-linecap="round"
    stroke-linejoin="round"
  />
  <path
    d="M289 185c-34 37-50 69-48 96 2 25 24 37 51 38"
    fill="none"
    stroke="url(#ribbonB)"
    stroke-width="28"
    stroke-linecap="round"
    stroke-linejoin="round"
  />
  <circle cx="216" cy="438" r="19" fill="#ffe900"/>
</svg>
